<svg xmlns="http://www.w3.org/2000/svg" width="98.77" height="115.794" viewBox="0 0 98.77 115.794"><defs><style>.a{isolation:isolate;}.b{fill:#6fd57c;}</style></defs><g class="a"><g transform="translate(0 0)"><path class="b" d="M44.333,164.715h-.3a6.922,6.922,0,0,0-6.9,6.9v30.054a6.916,6.916,0,0,0,6.9,6.908h.3a6.923,6.923,0,0,0,6.9-6.908V171.618A6.932,6.932,0,0,0,44.333,164.715Z" transform="translate(-37.134 -126.958)"/><path class="b" d="M113.085,216.979a6.352,6.352,0,0,0,6.344,6.334h6.779v16.233a6.924,6.924,0,0,0,6.9,6.913h.3a6.926,6.926,0,0,0,6.913-6.913V223.313h9.474v16.233a6.932,6.932,0,0,0,6.913,6.913H157a6.922,6.922,0,0,0,6.908-6.913V223.313h6.784a6.351,6.351,0,0,0,6.339-6.334V169.525H113.085Z" transform="translate(-95.675 -130.665)"/><path class="b" d="M160.269,10.082l5.385-8.312a1.143,1.143,0,0,0-.336-1.582,1.135,1.135,0,0,0-1.582.336l-5.582,8.6a36.912,36.912,0,0,0-27.616,0l-5.573-8.6a1.148,1.148,0,0,0-1.929,1.246l5.39,8.312c-9.716,4.762-16.268,13.736-16.268,24.031,0,.633.04,1.256.094,1.874h64.2c.054-.618.089-1.241.089-1.874C176.536,23.819,169.98,14.844,160.269,10.082ZM129.463,24.966a3.083,3.083,0,1,1,3.09-3.085A3.084,3.084,0,0,1,129.463,24.966Zm29.762,0a3.083,3.083,0,1,1,3.085-3.085A3.084,3.084,0,0,1,159.225,24.966Z" transform="translate(-94.96 0)"/><path class="b" d="M413.668,164.715h-.287a6.93,6.93,0,0,0-6.913,6.9v30.054a6.928,6.928,0,0,0,6.913,6.908h.292a6.92,6.92,0,0,0,6.9-6.908V171.618A6.926,6.926,0,0,0,413.668,164.715Z" transform="translate(-321.807 -126.958)"/></g></g></svg>