<svg xmlns="http://www.w3.org/2000/svg" width="85.56" height="104.313" viewBox="0 0 85.56 104.313"><defs><style>.a{isolation:isolate;}.b{fill:#3d3d3d;}</style></defs><g class="a"><path class="b" d="M74.389,198.239c-15.525-.089-28.367-31.781-28.367-47.921,0-26.364,19.778-32.136,27.4-32.136,3.435,0,7.1,1.349,10.338,2.543,2.262.833,4.6,1.692,5.9,1.692a18.371,18.371,0,0,0,4.235-1.373c3.456-1.376,7.756-3.086,12.764-3.086h.03c3.739,0,15.077.821,21.894,11.057l1.6,2.4-2.3,1.734c-3.283,2.477-9.273,7-9.273,15.946,0,10.6,6.784,14.677,10.043,16.638,1.439.865,2.928,1.758,2.928,3.71,0,1.274-10.171,28.639-24.941,28.639a20.059,20.059,0,0,1-8.422-2.044,17.078,17.078,0,0,0-7.5-1.806,19.283,19.283,0,0,0-5.936,1.606c-3.014,1.125-6.425,2.4-10.3,2.4Z" transform="translate(-46.022 -93.926)"/><path class="b" d="M274.752,0c.385,13.87-9.534,23.492-19.442,22.888C253.677,11.82,265.216,0,274.752,0Z" transform="translate(-212.546)"/></g></svg>