<svg xmlns="http://www.w3.org/2000/svg" width="72.09" height="120.01" viewBox="0 0 72.09 120.01"><defs><style>.a{fill:#ffb450;}.a,.b,.c,.e,.f,.g,.h{fill-rule:evenodd;}.b,.f,.g,.h{fill:none;stroke-linecap:round;stroke-width:2px;}.b{stroke:#5d6d81;}.c{fill:#fff;}.d{fill:#5eb4f6;}.e{fill:#c5cdd7;}.f{stroke:#7ddeb1;}.g{stroke:#fbd86a;}.h{stroke:#f08481;}</style></defs><g transform="translate(1 1)"><path class="a" d="M86.841,123.7H32.747a6.055,6.055,0,0,1-6.142-5.965V12.872a6.055,6.055,0,0,1,6.142-5.965H86.841a6.057,6.057,0,0,1,6.145,5.965V117.736A6.057,6.057,0,0,1,86.841,123.7Z" transform="translate(-22.979 -5.691)"/><path class="b" d="M86.9,124.01H32.809a6.085,6.085,0,0,1-6.142-6.027V12.027A6.085,6.085,0,0,1,32.809,6H86.9a6.087,6.087,0,0,1,6.145,6.027V117.984A6.086,6.086,0,0,1,86.9,124.01Z" transform="translate(-22.958 -6)"/><path class="c" d="M26.605,105.7H91.86V16.887H26.605Z" transform="translate(-22.979 -2.287)"/><path class="d" d="M55.592,69.356V67.822a14.7,14.7,0,0,0,3.216-.355l.337,1.5a16.147,16.147,0,0,1-3.554.393Zm6.975-1.588L61.9,66.387a14.564,14.564,0,0,0,2.741-1.719l.952,1.2A16.1,16.1,0,0,1,62.567,67.768Zm5.593-4.455-1.2-.959a14.588,14.588,0,0,0,1.73-2.734l1.379.671a16.128,16.128,0,0,1-1.912,3.023Zm3.1-6.362L69.767,56.6a14.607,14.607,0,0,0,.385-3.214l1.533.013A16.154,16.154,0,0,1,71.26,56.951Zm.051-7.158-1.5.329a14.448,14.448,0,0,0-1.043-3.062l1.385-.653a15.811,15.811,0,0,1,1.153,3.386Zm-3.048-6.456-1.206.947a14.652,14.652,0,0,0-2.266-2.312l.968-1.187a16.187,16.187,0,0,1,2.5,2.552ZM62.6,38.77l-.669,1.38a14.45,14.45,0,0,0-3.051-1.077l.346-1.494A16.065,16.065,0,0,1,62.6,38.77Zm-6.835-1.6L55.751,38.7H55.6a14.581,14.581,0,0,0-3.067.322l-.322-1.5a16.164,16.164,0,0,1,3.389-.357h.172Zm-6.991,1.51.649,1.388a14.625,14.625,0,0,0-2.76,1.69l-.94-1.21a16.094,16.094,0,0,1,3.051-1.868Zm-5.643,4.395,1.185.971a14.577,14.577,0,0,0-1.759,2.716l-1.372-.684a16.214,16.214,0,0,1,1.944-3ZM39.963,49.4l1.489.366a14.577,14.577,0,0,0-.418,3.209l-1.533-.03A16.148,16.148,0,0,1,39.963,49.4Zm-.127,7.161,1.5-.312a14.444,14.444,0,0,0,1.01,3.072l-1.395.64a16.1,16.1,0,0,1-1.117-3.4Zm2.977,6.484,1.216-.932a14.591,14.591,0,0,0,2.241,2.335l-.982,1.177a16.186,16.186,0,0,1-2.476-2.58Zm5.607,4.627L49.1,66.3a14.464,14.464,0,0,0,3.039,1.11L51.78,68.9a15.985,15.985,0,0,1-3.361-1.227Zm6.82,1.68.034-1.533c.1,0,.208,0,.312,0v1.533c-.115,0-.231,0-.346,0ZM66.2,50.992a.256.256,0,0,1,.282.2.264.264,0,0,1-.169.308c-1.568.523-5.783,2.162-6.457,3.421-.708,1.322,1.2,4.88,2,6.139a.268.268,0,0,1-.07.359.249.249,0,0,1-.35-.064c-.027-.038-2.673-3.8-5.214-3.535-1.479.15-4.065,3.855-4.935,5.27a.253.253,0,0,1-.216.121.247.247,0,0,1-.123-.032.268.268,0,0,1-.106-.345c.6-1.267,1.955-4.812,1.066-5.968-1.9-2.473-6.495-1.1-6.542-1.084a.255.255,0,0,1-.315-.173.264.264,0,0,1,.162-.327c1.344-.461,4.881-1.92,5.266-3.173-.135-2.39-3.272-5.1-3.3-5.131a.268.268,0,0,1-.036-.366.249.249,0,0,1,.354-.044c.04.032,4.057,3.178,6.918,2.226,3.161-1.053,4.667-5.53,4.683-5.576a.255.255,0,0,1,.307-.169.263.263,0,0,1,.184.3c-.011.055-1.043,5.5.307,7.3.587.782,4.184.622,6.312.338Zm-2.828-4.439a1.922,1.922,0,1,1-2.657.567,1.922,1.922,0,0,1,2.657-.567ZM48.539,50.32a1.439,1.439,0,1,1-1.99.424,1.439,1.439,0,0,1,1.99-.424Zm1.353,6.4a1.551,1.551,0,0,1,.375,1.993,1.2,1.2,0,0,1-1.77.424,1.548,1.548,0,0,1-.375-1.991A1.2,1.2,0,0,1,49.892,56.723Zm7.858,2.907a1.6,1.6,0,1,1-2.214.472,1.6,1.6,0,0,1,2.214-.472Zm5.445-5.123a1.6,1.6,0,1,1-2.214.471,1.6,1.6,0,0,1,2.214-.471ZM55.041,43.994a1.92,1.92,0,1,1-2.655.566,1.92,1.92,0,0,1,2.655-.566Z" transform="translate(-18.581 4.629)"/><path class="b" d="M26.667,107.4H93.048V18.9H26.667Zm28.919-95.96H66.462m-18.127,0h1.208" transform="translate(-22.958 -4.144)"/><path class="e" d="M58.513,91.011a6.042,6.042,0,1,1-6.041-6.083,6.062,6.062,0,0,1,6.041,6.083" transform="translate(-16.218 20.916)"/><path class="b" d="M63.737,111.451a6.042,6.042,0,1,1-6.041-6.083,6.062,6.062,0,0,1,6.041,6.083ZM31.11,28.722l7.251-7.3M31.11,39.67l4.834-4.865m6.041-7.3,6.043-6.083M31.11,50.621,49.237,32.372M57.7,22.639,58.9,21.423" transform="translate(-21.443 -0.74)"/><path class="f" d="M23.9,21.423v1.216" transform="translate(-23.901 -0.74)"/><path class="g" d="M23.9,26.866v1.216" transform="translate(-23.901 1.116)"/><path class="h" d="M23.9,32.31v1.215" transform="translate(-23.901 2.972)"/></g></svg>