<svg xmlns="http://www.w3.org/2000/svg" width="120.693" height="120.706" viewBox="0 0 120.693 120.706"><defs><style>.a{fill:#5eb4f6;}</style></defs><path class="a" d="M65.342,125.706v-5.748A54.725,54.725,0,0,0,77.4,118.621l1.265,5.608a60.547,60.547,0,0,1-13.327,1.476ZM91.5,119.757l-2.494-5.179a54.634,54.634,0,0,0,10.278-6.449l3.575,4.5A60.379,60.379,0,0,1,91.5,119.757Zm20.976-16.709-4.487-3.593A54.641,54.641,0,0,0,114.479,89.2l5.17,2.513a60.39,60.39,0,0,1-7.171,11.334ZM124.1,79.194l-5.6-1.313a54.737,54.737,0,0,0,1.442-12.05l5.748.048A60.483,60.483,0,0,1,124.1,79.195Zm.189-26.847-5.614,1.234A54.178,54.178,0,0,0,114.763,42.1l5.2-2.451a59.925,59.925,0,0,1,4.326,12.7ZM112.862,28.141l-4.523,3.547a54.95,54.95,0,0,0-8.5-8.666l3.634-4.454a60.7,60.7,0,0,1,9.39,9.574ZM91.631,11.013l-2.508,5.172a54.185,54.185,0,0,0-11.439-4.036l1.294-5.6a59.933,59.933,0,0,1,12.653,4.463ZM66,5.005l-.063,5.748-.585,0a54.794,54.794,0,0,0-11.5,1.211l-1.2-5.622A60.615,60.615,0,0,1,65.356,5C65.68,5,65.68,5,66,5ZM39.782,10.664l2.437,5.207a54.607,54.607,0,0,0-10.35,6.336L28.342,17.67a60.353,60.353,0,0,1,11.439-7ZM18.622,27.146l4.447,3.64a54.668,54.668,0,0,0-6.6,10.185L11.328,38.4a60.416,60.416,0,0,1,7.3-11.255ZM6.737,50.874l5.581,1.375a54.667,54.667,0,0,0-1.572,12.033L5,64.173a60.414,60.414,0,0,1,1.737-13.3ZM6.261,77.729l5.627-1.173a54.174,54.174,0,0,0,3.79,11.525l-5.225,2.4A59.922,59.922,0,0,1,6.261,77.729Zm11.16,24.315,4.562-3.5a54.949,54.949,0,0,0,8.4,8.757l-3.681,4.415a60.7,60.7,0,0,1-9.285-9.674ZM38.449,119.4l2.564-5.144a54.2,54.2,0,0,0,11.393,4.164L51.05,124a59.944,59.944,0,0,1-12.6-4.606Zm25.576,6.295.122-5.748c.39.009.782.013,1.172.013v5.748C64.886,125.706,64.456,125.7,64.025,125.692Zm41.088-68.851a.962.962,0,0,1,1.054.76.988.988,0,0,1-.637,1.152c-5.876,1.967-21.683,8.107-24.211,12.83-2.655,4.96,4.5,18.3,7.486,23.02a1,1,0,0,1-.262,1.35.936.936,0,0,1-1.314-.239c-.1-.143-10.019-14.236-19.55-13.26-5.548.565-15.242,14.459-18.509,19.764a.948.948,0,0,1-.807.456.925.925,0,0,1-.465-.125,1,1,0,0,1-.393-1.29c2.242-4.754,7.329-18.044,4-22.376-7.132-9.279-24.358-4.118-24.531-4.066a.952.952,0,0,1-1.184-.648.992.992,0,0,1,.61-1.23c5.04-1.727,18.3-7.2,19.747-11.9-.51-8.961-12.273-19.136-12.392-19.24a1.006,1.006,0,0,1-.137-1.372.936.936,0,0,1,1.328-.166c.152.121,15.213,11.915,25.945,8.344C72.746,44.663,78.4,27.871,78.451,27.7a.952.952,0,0,1,1.152-.634.986.986,0,0,1,.688,1.144c-.04.205-3.913,20.632,1.151,27.366,2.2,2.933,15.69,2.333,23.672,1.265ZM94.5,40.2a7.2,7.2,0,1,1-9.964,2.121A7.2,7.2,0,0,1,94.5,40.2ZM38.892,54.322a5.4,5.4,0,1,1-4.064-.754A5.391,5.391,0,0,1,38.892,54.322Zm5.077,24.012a5.821,5.821,0,0,1,1.412,7.472A4.49,4.49,0,0,1,38.738,87.4a5.817,5.817,0,0,1-1.411-7.47,4.489,4.489,0,0,1,6.642-1.592Zm29.468,10.9A6,6,0,1,1,65.136,91a6,6,0,0,1,8.3-1.769ZM93.85,70.025a6,6,0,1,1-8.3,1.766,6,6,0,0,1,8.3-1.766ZM63.283,30.6a7.2,7.2,0,1,1-9.958,2.119A7.2,7.2,0,0,1,63.283,30.6Z" transform="translate(-5 -5)"/></svg>