<svg xmlns="http://www.w3.org/2000/svg" width="99.7" height="120.691" viewBox="0 0 99.7 120.691"><defs><style>.a{fill:#f5f5f5;}.a,.b,.c,.e{fill-rule:evenodd;}.b{fill:none;stroke:#5d6d81;stroke-width:1.5px;stroke-dasharray:3;}.c,.d{fill:#5d6d81;}.e{fill:#fff;}.f{fill:#f08481;}.g{fill:#ebb200;}.h{fill:#7ddeb1;}.i{fill:#5baadc;}</style></defs><path class="a" d="M13.807,100.453V9.338a3.229,3.229,0,0,1,4.086-3.074L75.631,26.957a3.2,3.2,0,0,1,2.4,3.076v91.113c0,2.1-2.038,3.075-4.087,3.075L16.2,103.526a3.192,3.192,0,0,1-2.394-3.074" transform="translate(-12.494 -4.84)"/><path class="b" d="M26.377,49.887c0-9.374,10.581-14.02,19.948-14.02S60.3,40.514,60.3,49.887,52.7,68.336,43.337,68.336,26.377,59.261,26.377,49.887Z" transform="translate(-8.207 5.293)"/><g transform="translate(24.515 44.759)"><path class="c" d="M43.861,38.558a.274.274,0,0,1,.215.3c-.3,2.278-.472,6.128.358,6.757,1.906,1.446,7.685.339,7.743.329a.279.279,0,0,1,.325.2.272.272,0,0,1-.18.329c-.048.016-4.8,1.629-5.915,5.015-1.011,3.063,2.327,7.362,2.36,7.405a.268.268,0,0,1-.047.38.282.282,0,0,1-.389-.039c-.027-.035-2.907-3.393-5.443-3.538-1.33.412-2.878,4.2-3.366,5.636a.28.28,0,0,1-.349.174.272.272,0,0,1-.184-.338c.016-.05,1.475-4.967-1.149-7-1.227-.952-4.987.5-6.332,1.141a.282.282,0,0,1-.365-.113.271.271,0,0,1,.094-.362c1.5-.933,5.431-3.7,5.592-5.284.276-2.722-3.712-5.553-3.752-5.583a.268.268,0,0,1-.067-.375.282.282,0,0,1,.382-.074c1.336.852,5.109,2.9,6.513,2.138,1.337-.721,3.074-5.234,3.63-6.912a.279.279,0,0,1,.326-.182" transform="translate(-31.108 -38.551)"/><path class="c" d="M48.476,41.356a2.084,2.084,0,0,0-2.844-.591,1.985,1.985,0,0,0-.6,2.783,2.084,2.084,0,0,0,2.843.591,1.985,1.985,0,0,0,.606-2.783M44.517,57.23a1.537,1.537,0,0,0-2.1-.436,1.463,1.463,0,0,0-.447,2.054,1.538,1.538,0,0,0,2.1.437,1.466,1.466,0,0,0,.447-2.056m-7.052-1.706a1.515,1.515,0,0,0-2.069-.429,1.443,1.443,0,0,0-.44,2.024,1.515,1.515,0,0,0,2.068.429,1.443,1.443,0,0,0,.441-2.024m-2.805-7.978a1.7,1.7,0,0,0-2.328-.484,1.623,1.623,0,0,0-.5,2.276,1.7,1.7,0,0,0,2.328.484,1.624,1.624,0,0,0,.5-2.276m5.474-6.293a1.81,1.81,0,0,0-2.47-.515,1.725,1.725,0,0,0-.526,2.418,1.81,1.81,0,0,0,2.47.515,1.725,1.725,0,0,0,.526-2.418m10.9,9a2.083,2.083,0,0,0-2.844-.593,1.985,1.985,0,0,0-.6,2.783,2.081,2.081,0,0,0,2.843.593,1.985,1.985,0,0,0,.606-2.783" transform="translate(-30.953 -37.907)"/></g><path class="d" d="M74.49,123.233c1.566-.058,2.557-.758,2.557-1.757V30.361a1.933,1.933,0,0,0-1.525-1.841L17.89,7.86a1.918,1.918,0,0,0-2.438,1.806v91.115a1.925,1.925,0,0,0,1.525,1.837l57.514,20.616ZM12.829,100.781V9.667a4.553,4.553,0,0,1,5.84-4.309L76.3,26.018a4.509,4.509,0,0,1,3.369,4.344v91.113c0,2.779-2.431,4.385-5.4,4.385h-.228l-.215-.075L16.2,105.122a4.506,4.506,0,0,1-3.371-4.341Z" transform="translate(-12.828 -5.169)"/><path class="e" d="M69.869,25.261a3.185,3.185,0,0,1,2.363,3.076v84.051h18.4V22.775L78.364,10.554H29.4L69.869,25.261Z" transform="translate(-7.177 -3.339)"/><path class="d" d="M71.529,26.859,25.579,9.576H80.642l12.6,13v91.458H72.852V28.671a1.857,1.857,0,0,0-1.321-1.812Zm3.945,1.81v82.741H90.62V23.641L79.53,12.2H40L72.292,24.349a4.482,4.482,0,0,1,3.182,4.322Z" transform="translate(-8.48 -3.673)"/><path class="e" d="M82.313,12.31,94.605,24.352V56.468l14.341-10.036V9.766A3.514,3.514,0,0,0,105.4,6.288L19.931,5.752c3,0-.436,1.248-.445,1.384l13.97,5.174Z" transform="translate(-10.557 -4.977)"/><path class="d" d="M83.01,13.818H34.459L17.706,7.8l.06-.982q.012-.186.019-.371L15.874,5.174H106.63a4.826,4.826,0,0,1,4.86,4.79V47.313L94.525,59.185V25.1L83.01,13.82ZM34.917,11.2H84.081L97.149,24V54.147l11.717-8.2V9.963A2.2,2.2,0,0,0,106.63,7.8H25.461l9.454,3.4ZM19.1,6.84V6.9l1.29.079c.012-.2.017-.319.021-.453L19.221,6.49l-.126.35Z" transform="translate(-11.789 -5.174)"/><path class="f" d="M64.034,51.819a1.312,1.312,0,1,1,0-2.623H72.4a1.312,1.312,0,1,1,0,2.623H64.032Z" transform="translate(4.187 9.839)"/><path class="g" d="M64.034,62.825a1.312,1.312,0,1,1,0-2.624H72.4a1.312,1.312,0,0,1,0,2.624H64.032Z" transform="translate(4.187 13.592)"/><path class="h" d="M64.034,72.73a1.312,1.312,0,1,1,0-2.624H72.4a1.312,1.312,0,0,1,0,2.624H64.032Z" transform="translate(4.187 16.969)"/><path class="d" d="M64.034,30.909a1.312,1.312,0,1,1,0-2.624H72.4a1.312,1.312,0,0,1,0,2.624H64.032Z" transform="translate(4.187 2.707)"/><path class="i" d="M64.034,40.814a1.312,1.312,0,1,1,0-2.624H72.4a1.312,1.312,0,0,1,0,2.624H64.032Z" transform="translate(4.187 6.085)"/><path class="d" d="M66.9,21.049H77.539v2.624H64.28V10.554H66.9Z" transform="translate(4.719 -3.339)"/></svg>