<svg xmlns="http://www.w3.org/2000/svg" width="119.396" height="104.569" viewBox="0 0 119.396 104.569"><defs><style>.a{fill:#ffb450;}.a,.c,.d{fill-rule:evenodd;}.b{fill:#5d6d81;}.d{fill:#424242;}.e{fill:#fff;}.f{fill:#ebb200;}.g{fill:#f08481;}.h{fill:#7ddeb1;}.i{fill:#5baadc;}</style></defs><path class="a" d="M90.994,113.49,8.2,70.391a4.189,4.189,0,0,1-1.778-5.612L32.188,14.222a4.1,4.1,0,0,1,5.552-1.8l18.87,9.823,63.922,33.277a4.187,4.187,0,0,1,1.778,5.612L96.548,111.695a4.1,4.1,0,0,1-5.555,1.8" transform="translate(-4.67 -10.674)"/><path class="b" d="M91.926,112.675a2.8,2.8,0,0,0,3.794-1.236l25.761-50.557A2.9,2.9,0,0,0,120.26,57L37.469,13.9a2.8,2.8,0,0,0-3.794,1.236L7.914,65.689a2.9,2.9,0,0,0,1.22,3.885Zm-1.2,2.288L7.931,71.863A5.479,5.479,0,0,1,5.6,64.522L31.361,13.966a5.4,5.4,0,0,1,7.311-2.355l17.735,9.232,65.056,33.866a5.476,5.476,0,0,1,2.333,7.341L98.035,112.606a5.4,5.4,0,0,1-7.313,2.356Z" transform="translate(-5 -11.002)"/><path class="c" d="M52.593,46.571a.465.465,0,0,0-.185-.126,4.1,4.1,0,0,0-1.932-.22L47.5,51.305a4.883,4.883,0,0,0,2.749-1.482,10.443,10.443,0,0,0,2.1-2.449q.37-.632.243-.8m.241,3.705a8.553,8.553,0,0,1-2.4,2.754,14.53,14.53,0,0,1-2.893,1.778,5.114,5.114,0,0,1-1.856.574,1.373,1.373,0,0,1-.492-.154,3.4,3.4,0,0,1-1.135-1.059,3.563,3.563,0,0,1-.654-1.181l4.922-9.6a.493.493,0,0,1,.609-.207,5.513,5.513,0,0,1,.616.437,3.267,3.267,0,0,0,.932.127,3.366,3.366,0,0,1,1.3.3,2.471,2.471,0,0,1,.957.885,8.892,8.892,0,0,1,.547,1.194,4.12,4.12,0,0,1,.322,2.226,7.937,7.937,0,0,1-.772,1.93M57.3,58.748a.963.963,0,0,1-.538.4,7.316,7.316,0,0,1-2.081,1.057,2.735,2.735,0,0,1-1.894.173.836.836,0,0,1-.142-.09q-.566-.557-1.1-1.147a4.2,4.2,0,0,1-.966-3.071A8.442,8.442,0,0,1,51.615,52.6,9.64,9.64,0,0,1,54.5,49.147q1.847-1.328,3.252-.7a3.683,3.683,0,0,1,1.274,1.321,3.81,3.81,0,0,1,.766,1.8,7.312,7.312,0,0,1-.821,2.647,2.391,2.391,0,0,1-.535.759c-.279.274-.5.354-.657.24a8.486,8.486,0,0,1-1.041-.9c-.483-.48-.712-.793-.691-.941a.339.339,0,0,1,.034-.134A.7.7,0,0,1,56.358,53a.7.7,0,0,0,.272-.241,9.326,9.326,0,0,0,.606-.992,2.236,2.236,0,0,0,.341-1.043,4.174,4.174,0,0,0-2.262,1.336,11.417,11.417,0,0,0-2.586,4.573,2.058,2.058,0,0,0-.075,1.321c.063.1.409.047,1.037-.16a4.738,4.738,0,0,0,1.314-.59,4.717,4.717,0,0,0,.349-.366.5.5,0,0,1,.37-.184c.181.024.51.353.987.982s.673,1,.59,1.117" transform="translate(8.097 -0.04)"/><path class="b" d="M70.393,63.049l4.628,2.339a22.025,22.025,0,0,1-9.879,9.6L62.814,70.37A16.874,16.874,0,0,0,70.393,63.049ZM52.28,72.239l-.645,5.125a20.844,20.844,0,0,1-6.981-2.136,20.35,20.35,0,0,1-5.5-4.16l3.8-3.526a15.106,15.106,0,0,0,4.1,3.1,15.623,15.623,0,0,0,5.23,1.594ZM38.436,57.86l-5.142.711a23.09,23.09,0,0,1,2.132-13.5l4.649,2.3A17.95,17.95,0,0,0,38.436,57.86Zm9.092-17.688L45.4,35.462A21.648,21.648,0,0,1,59.182,34.2L57.994,39.23A16.426,16.426,0,0,0,47.529,40.171Zm19.713,4.5,3.826-3.491a22.978,22.978,0,0,1,5.927,12.347l-5.144.7a17.839,17.839,0,0,0-4.608-9.556Z" transform="translate(4.571 -3.291)"/><path class="d" d="M16.205,89.648a4.141,4.141,0,0,1-4.125-4.16V30.573a4.143,4.143,0,0,1,4.125-4.16h93.18a4.143,4.143,0,0,1,4.125,4.161V85.489a4.141,4.141,0,0,1-4.125,4.159Z" transform="translate(-2.585 -5.747)"/><path class="b" d="M109.715,88.685a2.848,2.848,0,0,0,2.83-2.868V30.9a2.849,2.849,0,0,0-2.83-2.868H16.536a2.848,2.848,0,0,0-2.827,2.87V85.818a2.846,2.846,0,0,0,2.827,2.867Zm0,2.583H16.536a5.436,5.436,0,0,1-5.423-5.451V30.9a5.437,5.437,0,0,1,5.423-5.451h93.179a5.438,5.438,0,0,1,5.423,5.453V85.818A5.437,5.437,0,0,1,109.715,91.268Z" transform="translate(-2.915 -6.075)"/><path class="e" d="M17.758,44.765a1.291,1.291,0,1,1,0-2.583H33.126a1.291,1.291,0,1,1,0,2.583H17.758Zm23.565,0a1.291,1.291,0,1,1,0-2.583H56.691a1.291,1.291,0,1,1,0,2.583ZM17.758,63.123a1.291,1.291,0,1,1,0-2.583H33.126a1.291,1.291,0,1,1,0,2.583H17.758Zm23.565,0a1.291,1.291,0,1,1,0-2.583H56.691a1.291,1.291,0,1,1,0,2.583Z" transform="translate(-1.092 -0.369)"/><path class="f" d="M17.758,65.3a1.291,1.291,0,1,1,0-2.583h1.025a1.291,1.291,0,1,1,0,2.583Z" transform="translate(-1.092 6.634)"/><path class="g" d="M24.634,65.3a1.291,1.291,0,1,1,0-2.583h4.1a1.291,1.291,0,1,1,0,2.583Z" transform="translate(1.253 6.634)"/><path class="h" d="M33.038,65.679a1.291,1.291,0,1,1,0-2.581h1.025a1.291,1.291,0,1,1,0,2.581Z" transform="translate(4.119 6.764)"/><path class="i" d="M39.914,65.3a1.291,1.291,0,1,1,0-2.583h4.1a1.291,1.291,0,1,1,0,2.583Z" transform="translate(6.464 6.634)"/><path class="e" d="M17.758,38.43a1.291,1.291,0,1,1,0-2.583H33.126a1.291,1.291,0,1,1,0,2.583H17.758Zm23.565-.511a1.291,1.291,0,1,1,0-2.581H56.691a1.291,1.291,0,1,1,0,2.581ZM17.758,56.278a1.291,1.291,0,1,1,0-2.583H33.126a1.291,1.291,0,1,1,0,2.583H17.758Zm23.565,0a1.291,1.291,0,1,1,0-2.583H56.691a1.291,1.291,0,1,1,0,2.583ZM85.872,74.267V72.444a17.373,17.373,0,0,0,3.823-.422l.4,1.777a19.228,19.228,0,0,1-4.224.468Zm8.292-1.885-.791-1.641A17.314,17.314,0,0,0,96.631,68.7l1.132,1.426a19.136,19.136,0,0,1-3.6,2.26Zm6.647-5.3-1.421-1.139a17.268,17.268,0,0,0,2.056-3.251l1.639.8a19.139,19.139,0,0,1-2.273,3.594Zm3.684-7.559-1.774-.416a17.289,17.289,0,0,0,.456-3.821l1.822.016A19.169,19.169,0,0,1,104.495,59.526Zm.059-8.509-1.778.39a17.17,17.17,0,0,0-1.24-3.638l1.648-.778a19.088,19.088,0,0,1,1.371,4.026Zm-3.621-7.671L99.5,44.47a17.414,17.414,0,0,0-2.693-2.746l1.152-1.412A19.3,19.3,0,0,1,100.933,43.347ZM94.2,37.917l-.794,1.64a17.173,17.173,0,0,0-3.626-1.279l.41-1.776a19.072,19.072,0,0,1,4.01,1.415Zm-8.121-1.9-.02,1.822h-.185a17.367,17.367,0,0,0-3.646.384l-.381-1.781a19.186,19.186,0,0,1,4.027-.424Zm-8.31,1.8.772,1.649a17.331,17.331,0,0,0-3.28,2.009l-1.117-1.439A19.127,19.127,0,0,1,77.772,37.808Zm-6.705,5.223,1.408,1.153a17.326,17.326,0,0,0-2.092,3.228L68.755,46.6a19.147,19.147,0,0,1,2.311-3.567ZM67.3,50.552l1.77.436a17.325,17.325,0,0,0-.5,3.814l-1.821-.035a19.168,19.168,0,0,1,.55-4.215Zm-.15,8.51,1.784-.371a17.171,17.171,0,0,0,1.2,3.653l-1.656.759A19.02,19.02,0,0,1,67.148,59.062Zm3.536,7.707,1.446-1.108a17.512,17.512,0,0,0,2.665,2.776l-1.167,1.4a19.235,19.235,0,0,1-2.944-3.066Zm6.665,5.5.813-1.629a17.166,17.166,0,0,0,3.61,1.32l-.429,1.77a19,19,0,0,1-3.994-1.459Zm8.105,2,.04-1.821.37,0v1.822C85.728,74.268,85.591,74.267,85.455,74.263ZM98.476,52.444a.3.3,0,0,1,.335.24.314.314,0,0,1-.2.365c-1.863.624-6.871,2.569-7.673,4.066-.841,1.572,1.428,5.8,2.374,7.3a.318.318,0,0,1-.083.429.3.3,0,0,1-.416-.076c-.032-.046-3.177-4.511-6.2-4.2-1.758.18-4.83,4.582-5.866,6.264a.3.3,0,0,1-.255.145.294.294,0,0,1-.147-.04.318.318,0,0,1-.126-.408c.711-1.507,2.323-5.718,1.267-7.093-2.26-2.94-7.719-1.3-7.774-1.287a.3.3,0,0,1-.375-.205.314.314,0,0,1,.193-.39c1.6-.547,5.8-2.281,6.259-3.771-.161-2.84-3.889-6.065-3.928-6.1a.318.318,0,0,1-.043-.434.3.3,0,0,1,.421-.054c.047.039,4.821,3.776,8.222,2.645,3.758-1.25,5.548-6.571,5.565-6.625a.3.3,0,0,1,.366-.2.311.311,0,0,1,.217.362c-.012.064-1.24,6.539.365,8.672C91.673,52.971,95.947,52.781,98.476,52.444ZM95.114,47.17a2.283,2.283,0,1,1-3.157.673A2.283,2.283,0,0,1,95.114,47.17ZM77.49,51.644A1.71,1.71,0,1,1,76.2,51.4,1.706,1.706,0,0,1,77.49,51.644Zm1.609,7.61a1.843,1.843,0,0,1,.447,2.367,1.423,1.423,0,0,1-2.105.5,1.843,1.843,0,0,1-.447-2.367A1.422,1.422,0,0,1,79.1,59.254Zm9.338,3.454a1.9,1.9,0,1,1-2.63.561A1.9,1.9,0,0,1,88.437,62.708Zm6.47-6.088a1.9,1.9,0,1,1-2.631.561A1.9,1.9,0,0,1,94.908,56.62Zm-9.688-12.5a2.282,2.282,0,1,1-3.157.673,2.282,2.282,0,0,1,3.157-.673Z" transform="translate(-1.092 -2.703)"/></svg>