<svg xmlns="http://www.w3.org/2000/svg" width="109.964" height="109.964" viewBox="0 0 109.964 109.964"><defs><style>.a{fill:#f5f5f5;}.a,.c,.d,.e,.f,.g,.h{fill-rule:evenodd;}.b,.h{fill:#5d6d81;}.c{fill:#ffb450;}.d{fill:#f08481;}.e{fill:#ebb200;}.f{fill:#7ddeb1;}.g{fill:#fff;}.i{fill:#5eb4f6;}</style></defs><path class="a" d="M10,117.282H117.282V10H10Z" transform="translate(-8.659 -8.659)"/><path class="b" d="M9,118.964V9H118.965V118.964Zm2.682-2.682h104.6V11.682H11.682Z" transform="translate(-9 -9)"/><path class="c" d="M10,32.006H117.282V10H10Z" transform="translate(-8.659 -8.659)"/><path class="b" d="M9,33.688V9H118.965V33.688Zm2.682-2.682h104.6V11.682H11.682Z" transform="translate(-9 -9)"/><path class="d" d="M25.106,19.6a5.5,5.5,0,1,1-5.5-5.5,5.5,5.5,0,0,1,5.5,5.5" transform="translate(-7.26 -7.26)"/><path class="b" d="M24.106,19.945a4.161,4.161,0,1,0-4.161,4.161,4.161,4.161,0,0,0,4.161-4.161Zm2.682,0A6.843,6.843,0,1,1,19.946,13.1,6.843,6.843,0,0,1,26.788,19.945Z" transform="translate(-7.601 -7.601)"/><path class="e" d="M37.413,19.6a5.5,5.5,0,1,1-5.5-5.5,5.5,5.5,0,0,1,5.5,5.5" transform="translate(-3.062 -7.26)"/><path class="b" d="M36.413,19.945a4.16,4.16,0,1,0-4.16,4.16A4.16,4.16,0,0,0,36.413,19.945Zm2.682,0A6.842,6.842,0,1,1,32.253,13.1,6.842,6.842,0,0,1,39.095,19.945Z" transform="translate(-3.403 -7.601)"/><path class="f" d="M49.721,19.6a5.5,5.5,0,1,1-5.5-5.5,5.5,5.5,0,0,1,5.5,5.5" transform="translate(1.135 -7.26)"/><path class="b" d="M48.721,19.945a4.16,4.16,0,1,0-4.16,4.16,4.16,4.16,0,0,0,4.16-4.16Zm2.682,0A6.842,6.842,0,1,1,44.561,13.1,6.842,6.842,0,0,1,51.4,19.945Z" transform="translate(0.794 -7.601)"/><path class="g" d="M18.205,84.244h85.276V74.615H18.2Z" transform="translate(-5.861 13.376)"/><path class="b" d="M17.205,85.926V73.615h87.958V85.926Zm85.276-2.682V76.3H19.887v6.947Z" transform="translate(-6.202 13.035)"/><path class="g" d="M42.82,55.247H95.087V34.615H42.82Z" transform="translate(2.534 -0.265)"/><path class="b" d="M50.214,55.9V32.59h54.949V55.9Zm52.267-2.682V35.272H52.9V53.22H102.48ZM18.546,66.907a1.341,1.341,0,1,1,0-2.682H57.058a1.341,1.341,0,1,1,0,2.682Zm0,6.877a1.341,1.341,0,1,1,0-2.682h85.276a1.341,1.341,0,0,1,0,2.682H18.546Zm0,6.877a1.341,1.341,0,1,1,0-2.682h85.276a1.341,1.341,0,0,1,0,2.682H18.546Z" transform="translate(-6.202 -0.955)"/><path class="h" d="M90.947,37.716a2.063,2.063,0,1,1,2.063-2.063,2.063,2.063,0,0,1-2.063,2.063m0,11a2.063,2.063,0,1,1,2.063-2.063,2.063,2.063,0,0,1-2.063,2.063m-5.5-5.5a2.063,2.063,0,1,1,2.063-2.064,2.063,2.063,0,0,1-2.063,2.064m-5.5-5.5a2.063,2.063,0,1,1,2.063-2.063,2.063,2.063,0,0,1-2.063,2.063m0,11a2.063,2.063,0,1,1,2.063-2.063,2.063,2.063,0,0,1-2.063,2.063m5.5,5.5a2.063,2.063,0,1,1,2.063-2.062,2.063,2.063,0,0,1-2.063,2.063m-11-11a2.063,2.063,0,1,1,2.063-2.064,2.063,2.063,0,0,1-2.063,2.064m-5.5-5.5A2.063,2.063,0,1,1,71,35.653a2.063,2.063,0,0,1-2.063,2.063m0,11A2.063,2.063,0,1,1,71,46.656a2.063,2.063,0,0,1-2.063,2.063m5.5,5.5a2.063,2.063,0,1,1,2.063-2.062,2.063,2.063,0,0,1-2.063,2.063m-11-11A2.063,2.063,0,1,1,65.5,41.155a2.063,2.063,0,0,1-2.063,2.064m-5.5-5.5A2.063,2.063,0,1,1,60,35.653a2.063,2.063,0,0,1-2.063,2.063m0,11A2.063,2.063,0,1,1,60,46.656a2.063,2.063,0,0,1-2.063,2.063m5.5,5.5A2.063,2.063,0,1,1,65.5,52.158,2.063,2.063,0,0,1,63.44,54.22m-11-11A2.063,2.063,0,1,1,54.5,41.155a2.063,2.063,0,0,1-2.062,2.064m-5.5-5.5A2.063,2.063,0,1,1,49,35.653a2.063,2.063,0,0,1-2.063,2.063m0,11A2.063,2.063,0,1,1,49,46.656a2.063,2.063,0,0,1-2.063,2.063m5.5,5.5A2.063,2.063,0,1,1,54.5,52.158a2.063,2.063,0,0,1-2.063,2.062" transform="translate(3.233 -0.614)"/><path class="i" d="M31.19,58.61V57.269a12.81,12.81,0,0,0,2.816-.312l.3,1.309A14.163,14.163,0,0,1,31.19,58.61Zm6.1-1.388-.582-1.208a12.748,12.748,0,0,0,2.4-1.5l.834,1.05A14.1,14.1,0,0,1,37.295,57.222Zm4.895-3.9-1.046-.838a12.768,12.768,0,0,0,1.513-2.392l1.207.586a14.107,14.107,0,0,1-1.674,2.645ZM44.9,47.757,43.6,47.45a12.769,12.769,0,0,0,.337-2.811l1.341.011A14.136,14.136,0,0,1,44.9,47.757Zm.044-6.265-1.31.288a12.641,12.641,0,0,0-.912-2.678l1.212-.573a13.975,13.975,0,0,1,1.01,2.964Zm-2.666-5.647-1.055.827a12.822,12.822,0,0,0-1.985-2.022l.849-1.039A14.163,14.163,0,0,1,42.279,35.844Zm-4.955-4-.585,1.207a12.643,12.643,0,0,0-2.669-.943l.3-1.306a14.009,14.009,0,0,1,2.952,1.041Zm-5.98-1.4-.013,1.341h-.137a12.777,12.777,0,0,0-2.685.282l-.28-1.312a14.163,14.163,0,0,1,2.964-.312h.152Zm-6.118,1.321.569,1.215a12.81,12.81,0,0,0-2.414,1.478L22.558,33.4A14.082,14.082,0,0,1,25.227,31.766Zm-4.938,3.845,1.038.85a12.756,12.756,0,0,0-1.54,2.376l-1.2-.6a14.143,14.143,0,0,1,1.7-2.627Zm-2.773,5.538,1.3.321a12.756,12.756,0,0,0-.366,2.807l-1.341-.025a14.1,14.1,0,0,1,.4-3.1ZM17.4,47.415l1.314-.274A12.559,12.559,0,0,0,19.6,49.83l-1.22.559a13.981,13.981,0,0,1-.978-2.974Zm2.6,5.673,1.065-.815a12.853,12.853,0,0,0,1.961,2.044l-.858,1.03a14.161,14.161,0,0,1-2.167-2.257Zm4.907,4.05.6-1.2a12.645,12.645,0,0,0,2.658.972l-.316,1.3a13.987,13.987,0,0,1-2.94-1.074Zm5.968,1.468.03-1.341q.135,0,.274,0V58.61C31.085,58.61,30.985,58.608,30.883,58.606ZM40.472,42.54a.224.224,0,0,1,.245.178.231.231,0,0,1-.149.268c-1.372.46-5.06,1.891-5.65,2.995-.62,1.157,1.051,4.27,1.747,5.371a.233.233,0,0,1-.062.315.219.219,0,0,1-.306-.056c-.024-.032-2.339-3.322-4.562-3.094-1.294.133-3.556,3.374-4.318,4.613a.221.221,0,0,1-.188.106.215.215,0,0,1-.11-.03.233.233,0,0,1-.091-.3c.523-1.109,1.71-4.211.933-5.221-1.664-2.164-5.685-.962-5.725-.949a.223.223,0,0,1-.276-.15A.231.231,0,0,1,22.1,46.3c1.176-.4,4.271-1.68,4.608-2.776-.118-2.092-2.863-4.466-2.891-4.49a.235.235,0,0,1-.032-.321.219.219,0,0,1,.31-.039c.036.028,3.55,2.78,6.055,1.947,2.767-.92,4.085-4.838,4.1-4.879a.223.223,0,0,1,.268-.148.228.228,0,0,1,.161.267c-.008.048-.912,4.814.268,6.386.515.684,3.661.543,5.525.3Zm-2.477-3.881a1.68,1.68,0,1,1-2.324.495,1.68,1.68,0,0,1,2.324-.495ZM25.019,41.953a1.259,1.259,0,1,1-1.741.371,1.258,1.258,0,0,1,1.741-.371Zm1.184,5.6a1.357,1.357,0,0,1,.33,1.743,1.048,1.048,0,0,1-1.55.371,1.359,1.359,0,0,1-.329-1.743A1.046,1.046,0,0,1,26.2,47.555ZM33.08,50.1a1.4,1.4,0,1,1-1.937.412A1.4,1.4,0,0,1,33.08,50.1Zm4.763-4.482a1.4,1.4,0,1,1-1.937.412,1.4,1.4,0,0,1,1.937-.412Zm-7.133-9.2a1.68,1.68,0,1,1-2.324.493,1.68,1.68,0,0,1,2.324-.493Z" transform="translate(-6.234 -1.687)"/></svg>