<svg xmlns="http://www.w3.org/2000/svg" width="179.046" height="179.2" viewBox="0 0 179.046 179.2"><defs><style>.a{fill:#88dbfd;}.b{fill:#5abfe9;}.c{fill:#f2f2f2;}.d{fill:#fcc18b;}.e{fill:#eaab65;}.f{fill:#426175;}.g{fill:#2c4456;}.h{fill:#33bca5;}.i{fill:#cdd6df;}.j{fill:#fff;}.k{fill:#596c76;}</style></defs><g transform="translate(0)"><path class="a" d="M337.412,38.414H269.575a10.216,10.216,0,0,0-10.216,10.217V87A10.215,10.215,0,0,0,269.575,97.22h24.131l-3.9,15.742a2.234,2.234,0,0,0,3.529,2.309l23.5-18.05h20.58A10.217,10.217,0,0,0,347.629,87V48.631a10.217,10.217,0,0,0-10.217-10.217Zm0,0" transform="translate(-168.583 -24.969)"/><path class="b" d="M349.235,210l-3.017,12.176a2.234,2.234,0,0,0,3.529,2.309l23.5-18.05H353.877Zm0,0" transform="translate(-224.995 -134.182)"/><path class="b" d="M446.4,38.414H427.031a10.217,10.217,0,0,1,10.217,10.217V87A10.217,10.217,0,0,1,427.031,97.22H446.4A10.217,10.217,0,0,0,456.616,87V48.631A10.217,10.217,0,0,0,446.4,38.414Zm0,0" transform="translate(-277.569 -24.969)"/><g transform="translate(118.582 28.077)"><path class="c" d="M339.84,111.563l8.483-5.51a1,1,0,0,1,.634-.167,2.524,2.524,0,0,1,2.271,2.438,1.528,1.528,0,0,1-.6,1.3l-5.878,3.808,5.878,3.806a1.53,1.53,0,0,1,.6,1.3,2.525,2.525,0,0,1-2.271,2.438,1.013,1.013,0,0,1-.634-.167l-8.483-5.51a2.207,2.207,0,0,1,0-3.741Zm0,0" transform="translate(-338.805 -96.903)"/><path class="c" d="M399.582,81.988a1.448,1.448,0,0,1-.134.634L387.693,106.7a1.674,1.674,0,0,1-1.5.835,1.847,1.847,0,0,1-1.87-1.771,1.507,1.507,0,0,1,.167-.634L396.21,81.053a1.471,1.471,0,0,1,1.4-.834A1.912,1.912,0,0,1,399.582,81.988Zm0,0" transform="translate(-368.39 -80.219)"/><path class="c" d="M449.334,115.3l-8.482,5.51a1.013,1.013,0,0,1-.634.167,2.524,2.524,0,0,1-2.272-2.438,1.53,1.53,0,0,1,.6-1.3l5.878-3.806-5.878-3.808a1.527,1.527,0,0,1-.6-1.3,2.524,2.524,0,0,1,2.272-2.438,1,1,0,0,1,.634.167l8.482,5.51a2.207,2.207,0,0,1,0,3.741Zm0,0" transform="translate(-403.246 -96.903)"/></g><path class="d" d="M142.482,286.779c-.509-8.669-6.013-15.735-14.2-19.571-10.027-4.694-37.334-11.8-37.334-11.8a5.568,5.568,0,0,1-4.551-5.476V234.324H56.706v15.611a5.57,5.57,0,0,1-4.553,5.476s-27.305,7.1-37.332,11.8c-8.192,3.836-13.7,10.9-14.205,19.571L0,323.992a7.43,7.43,0,0,0,7.429,7.518H135.67a7.43,7.43,0,0,0,7.429-7.518Zm0,0" transform="translate(0.001 -152.31)"/><path class="e" d="M266.961,286.779c-.509-8.669-6.013-15.735-14.2-19.571-10.027-4.694-37.334-11.8-37.334-11.8a5.568,5.568,0,0,1-4.551-5.476V234.324H191.5V259.3a5.569,5.569,0,0,0,4.551,5.476s27.307,7.1,37.334,11.8c8.191,3.836,13.7,10.9,14.2,19.571l.585,35.371h11.97a7.43,7.43,0,0,0,7.429-7.518Zm0,0" transform="translate(-124.477 -152.31)"/><path class="e" d="M98.05,121.426h-3.9a6.02,6.02,0,0,0-5.932,7.25l1.531,8.426c1.187,6.247,8.308,3.392,8.308,3.392Zm0,0" transform="translate(-57.275 -78.927)"/><path class="d" d="M292.341,121.426h3.9a6.02,6.02,0,0,1,5.932,7.25l-1.53,8.426c-1.188,6.247-8.308,3.392-8.308,3.392Zm0,0" transform="translate(-190.015 -78.927)"/><path class="d" d="M167.406,13.415a30.693,30.693,0,0,0-43.2,0c-6.463,5.977-9.965,14.852-9.965,24.012l.01,31.936c0,15.1,19.625,30.734,31.557,30.734s31.557-15.637,31.557-30.734l.008-31.936C177.371,28.269,173.87,19.393,167.406,13.415Zm0,0" transform="translate(-74.255 -2.943)"/><path class="e" d="M208.046,13.415a31.878,31.878,0,0,0-21.6-8.888,30.97,30.97,0,0,0-9.684,1.645,33.577,33.577,0,0,1,11.916,7.243c6.464,5.977,9.965,14.853,9.965,24.012l-.008,31.936c0,11.424-11.236,23.155-21.874,28.187a23.468,23.468,0,0,0,9.684,2.547C198.379,100.1,218,84.461,218,69.364l.008-31.936c0-9.159-3.5-18.035-9.965-24.012Zm0,0" transform="translate(-114.895 -2.943)"/><path class="f" d="M153.9,0H114.847A18.194,18.194,0,0,0,96.653,18.195V43.3s5.011-.113,8.23,3.073a1.065,1.065,0,0,0,1.809-.764V25.931a8.043,8.043,0,0,1,8.043-8.042h7.308a8.309,8.309,0,0,1,5.258,1.876l.716.585a10.042,10.042,0,0,0,12.714,0l.718-.585a8.309,8.309,0,0,1,5.258-1.876h7.308a8.043,8.043,0,0,1,8.042,8.042V45.609a1.066,1.066,0,0,0,1.81.764c3.22-3.187,8.229-3.073,8.229-3.073V18.195A18.194,18.194,0,0,0,153.9,0Zm0,0" transform="translate(-62.824)"/><path class="g" d="M247.673,0h-6.755c3.4,4,5.532,10.012,5.586,17.89h1.282a8.043,8.043,0,0,1,8.042,8.043V45.609a1.065,1.065,0,0,0,1.81.764c3.22-3.186,8.229-3.072,8.229-3.072V18.195A18.194,18.194,0,0,0,247.673,0Zm0,0" transform="translate(-156.596)"/><path class="h" d="M128.278,312c-5.835-2.732-17.521-6.279-26.272-8.768l-1.892.716a80.643,80.643,0,0,1-57.13,0l-1.894-.716c-8.751,2.488-20.435,6.036-26.271,8.768-8.192,3.835-13.7,10.9-14.205,19.57L0,368.781A7.43,7.43,0,0,0,7.428,376.3H135.669a7.43,7.43,0,0,0,7.429-7.518l-.617-37.213c-.509-8.669-6.013-15.735-14.2-19.57Zm0,0" transform="translate(0.002 -197.1)"/><path class="c" d="M145.918,366.971H53.5a5.359,5.359,0,0,1-5.344-4.977l-3.779-53.031a5.356,5.356,0,0,1,5.343-5.738H149.7a5.357,5.357,0,0,1,5.343,5.738L151.262,362a5.358,5.358,0,0,1-5.344,4.975Zm0,0" transform="translate(-28.838 -197.097)"/><path class="i" d="M309.081,303.229h-19.51a5.356,5.356,0,0,1,5.343,5.738l-4.134,58.006H305.3A5.359,5.359,0,0,0,310.645,362l3.779-53.031a5.356,5.356,0,0,0-5.343-5.737Zm0,0" transform="translate(-188.22 -197.099)"/><path class="i" d="M151.066,494.684H46.752a4.662,4.662,0,1,1,0-9.324H151.066a4.662,4.662,0,0,1,0,9.324Zm0,0" transform="translate(-27.358 -315.483)"/><path class="j" d="M198.034,386.546a7.462,7.462,0,1,1-7.462-7.461A7.462,7.462,0,0,1,198.034,386.546Zm0,0" transform="translate(-119.02 -246.406)"/><path class="k" d="M193.832,219.718a11.456,11.456,0,0,1-10.29-6.341,2.393,2.393,0,1,1,4.277-2.15,6.733,6.733,0,0,0,12.026,0,2.394,2.394,0,0,1,4.277,2.151,11.457,11.457,0,0,1-10.29,6.34Z" transform="translate(-121.968 -142.838)"/><g transform="translate(54.081 48.836)"><path class="k" d="M162.666,170.987a2.393,2.393,0,0,1-2.393-2.393v-.822a2.393,2.393,0,1,1,4.787,0v.822A2.393,2.393,0,0,1,162.666,170.987Z" transform="translate(-160.273 -165.378)"/><path class="k" d="M260.542,170.987a2.393,2.393,0,0,1-2.393-2.393v-.822a2.394,2.394,0,1,1,4.787,0v.822A2.394,2.394,0,0,1,260.542,170.987Z" transform="translate(-227.371 -165.378)"/></g></g></svg>