<svg xmlns="http://www.w3.org/2000/svg" width="176.223" height="179.262" viewBox="0 0 176.223 179.262"><defs><style>.a{fill:#718799;}.b{fill:#ffa100;}.c{fill:#4f5dff;}.d{fill:#d1e4ff;}.e{fill:#ffceb6;}.f{fill:#c47220;}.g{fill:#ffc431;}.h{fill:#f78e00;}</style></defs><path class="a" d="M115.15,319V276.46L96.92,240H48.307l-3.038,39.5L24,325.073,42.23,319l19.747-28.21a18.23,18.23,0,0,0,2.36-4.689l8.276-24.829,21.268,21.268,6.077,42.537Z" transform="translate(-24 -157.965)"/><path class="b" d="M141.073,124.952a23.97,23.97,0,0,1-7.775,17.672l-14.416,13.22-5.154-5.154H68.153V135.5A12.155,12.155,0,0,1,56,123.347V114.23A18.23,18.23,0,0,1,74.23,96h43.835a15.186,15.186,0,0,1,12.358,6.361l6.184,8.656A23.944,23.944,0,0,1,141.073,124.952Z" transform="translate(-43.847 -68.655)"/><path class="c" d="M215.108,213.984v1.124h-1.124a85.963,85.963,0,0,1-56.6-21.267L48,57.115V48h9.115L193.84,157.38A85.96,85.96,0,0,1,215.108,213.984Z" transform="translate(-38.885 -38.885)"/><path class="d" d="M24,454.077v9.115H54.383v-6.077L42.23,448Z" transform="translate(-24 -286.968)"/><path class="e" d="M153.115,74.23A9.115,9.115,0,0,1,144,65.115V62.077L150.077,56H162.23v9.115A9.115,9.115,0,0,1,153.115,74.23Z" transform="translate(-98.425 -43.847)"/><path class="f" d="M162.23,36.153l2.519-5.039a4.916,4.916,0,0,0-4.4-7.115h-7.237A9.115,9.115,0,0,0,144,33.115V42.23l6.077-6.077Z" transform="translate(-98.425 -24)"/><path class="e" d="M152,150.077l5.447-5.447a2.148,2.148,0,0,1,3.668,1.519v3.928h9.115v9.115a6.077,6.077,0,0,1-6.077,6.077H152Z" transform="translate(-103.387 -98.425)"/><path class="b" d="M88,160h24.307v15.192H88Z" transform="translate(-63.693 -108.348)"/><path class="g" d="M393.731,392.6v1.124h-1.124A85.962,85.962,0,0,1,336,372.461l16.079-16.082,4.3-4.3L372.462,336A85.96,85.96,0,0,1,393.731,392.6Z" transform="translate(-217.507 -217.505)"/><path class="b" d="M398.72,392.643a6.077,6.077,0,1,1-11.941-1.569l-8.439-8.435,4.3-4.3,8.435,8.439a6.054,6.054,0,0,1,7.645,5.864Z" transform="translate(-243.765 -243.764)"/><path class="e" d="M172.153,224l-9.569,2.392a3.412,3.412,0,0,0,.828,6.723h2.664L160,239.192l5,5a6.077,6.077,0,0,0,8.4.183l9.978-9.147Z" transform="translate(-108.348 -148.042)"/><g transform="translate(75.958 161.032)"><path class="d" d="M224,454.077v9.115h30.383v-6.077L239.192,448Z" transform="translate(-224 -448)"/><path class="d" d="M410.537,486.077H368V480h42.537a3.038,3.038,0,0,1,0,6.077Z" transform="translate(-313.31 -467.847)"/><path class="d" d="M336,480h6.077v6.077H336Z" transform="translate(-293.463 -467.847)"/></g><rect class="h" width="24.389" height="6.097" rx="3.049" transform="translate(23.79 63.413)"/><rect class="h" width="24.389" height="6.097" rx="3.049" transform="translate(23.79 48.779)"/><path class="b" d="M225.422,154.176a23.97,23.97,0,0,1-7.775,17.672l-14.416,13.22L192,173.838l30.718-30.718A23.872,23.872,0,0,1,225.422,154.176Z" transform="translate(-128.195 -97.879)"/><path class="h" d="M3.038,0H29.924a3.038,3.038,0,0,1,0,6.077H3.038A3.038,3.038,0,0,1,3.038,0Z" transform="translate(61.642 73.805) rotate(-45)"/></svg>