<svg xmlns="http://www.w3.org/2000/svg" width="62.5" height="84.274" viewBox="0 0 62.5 84.274"><defs><style>.a{fill:#db380e;}.b{fill:#73a1fb;}</style></defs><g transform="translate(19.334)"><path class="a" d="M195.1,15.615c-3.894,2.739-8.307,5.843-10.672,10.979-4.107,8.96,8.4,18.733,8.939,19.145a.691.691,0,0,0,1.034-.866c-.045-.087-4.536-8.811-4.37-15.069.059-2.18,3.11-4.653,6.339-7.27,2.958-2.4,6.311-5.116,8.272-8.295,4.307-7-.48-13.879-.529-13.948a.691.691,0,0,0-1.238.545,14.7,14.7,0,0,1-1.65,9.284C200.164,12.056,197.819,13.705,195.1,15.615Z" transform="translate(-183.606 0)"/><path class="a" d="M267.566,107.31a.691.691,0,0,0-.661-1.2c-.661.252-16.2,6.241-16.2,13.477a13.785,13.785,0,0,0,3.687,9.548A7.266,7.266,0,0,1,255.7,131.1c.489,1.6-.669,4.5-1.156,5.484a.691.691,0,0,0,1.013.875c.267-.186,6.529-4.613,5.406-9.947a13.157,13.157,0,0,0-2.294-4.816c-1.362-2.025-2.346-3.488-.853-6.19C259.568,113.355,267.486,107.37,267.566,107.31Z" transform="translate(-239.661 -88.609)"/></g><g transform="translate(0 44.395)"><path class="b" d="M106.727,280.148a2.452,2.452,0,0,0,.363,2.288c1.684,2.338,7.651,3.626,16.8,3.626h0c1.24,0,2.549-.024,3.889-.072,14.629-.524,20.054-5.081,20.278-5.275a.69.69,0,0,0-.634-1.188c-5.152,1.407-14.772,1.906-21.445,1.906-7.467,0-11.269-.538-12.2-.935.478-.656,3.424-1.827,7.075-2.545a.691.691,0,0,0-.133-1.368C118.581,276.584,107.848,276.756,106.727,280.148Z" transform="translate(-99.933 -275.454)"/><path class="b" d="M366.43,269.718a14.433,14.433,0,0,0-6,1.576.691.691,0,0,0,.325,1.3c.064,0,6.436.052,7.013,3.693.511,3.141-6.029,8.23-8.592,9.926a.691.691,0,0,0,.525,1.252c.608-.13,14.881-3.275,13.372-11.585C372.153,270.787,368.952,269.718,366.43,269.718Z" transform="translate(-310.685 -269.718)"/><path class="b" d="M175.818,340.476a.692.692,0,0,0-.283-.692l-3.422-2.4a.693.693,0,0,0-.574-.1,67.324,67.324,0,0,1-8.81,1.527,61.146,61.146,0,0,1-6.68.353c-5.194,0-8.591-.61-9.085-1.058-.065-.126-.045-.183-.033-.215a1.742,1.742,0,0,1,.882-.664.691.691,0,0,0-.4-1.319c-3.433.828-5.111,1.987-4.989,3.443.217,2.582,6.2,3.907,11.253,4.257.727.05,1.513.075,2.336.075h0c8.407,0,19.184-2.638,19.292-2.665A.689.689,0,0,0,175.818,340.476Z" transform="translate(-129.862 -324.997)"/><path class="b" d="M162.219,390.978a.691.691,0,0,0-.4-1.269c-.46.012-4.5.195-4.785,2.768a2.676,2.676,0,0,0,.655,2.088c1.451,1.72,5.368,2.742,11.973,3.125.781.047,1.575.07,2.359.07a36,36,0,0,0,14.289-2.741.691.691,0,0,0,.065-1.214l-4.325-2.64a.7.7,0,0,0-.5-.087c-.027.006-2.773.575-6.917,1.138a22.3,22.3,0,0,1-2.918.161c-4.14,0-8.744-.676-9.627-1.119A.277.277,0,0,1,162.219,390.978Z" transform="translate(-142.062 -369.958)"/><path class="b" d="M92.192,435.759c19.234-.016,29.557-3.437,31.546-5.589a2.381,2.381,0,0,0,.72-1.953,3.017,3.017,0,0,0-1.323-1.945.7.7,0,0,0-.9.123.683.683,0,0,0,0,.9c.121.156.191.417-.163.772-.8.743-8.813,3-22.164,3.674-1.829.095-3.747.143-5.7.144-11.954,0-20.7-1.637-21.85-2.591.443-.636,3.537-1.652,6.828-2.227a.691.691,0,0,0-.211-1.365c-.093.013-.408.031-.773.054-5.43.331-11.7,1.07-12.032,3.868a2.847,2.847,0,0,0,.753,2.3c1.466,1.648,5.681,3.838,25.275,3.838Z" transform="translate(-66.142 -400.02)"/><path class="b" d="M188.429,456.253a.69.69,0,0,0-.8.157c-.028.03-2.92,3.054-11.615,4.83-3.329.667-9.577,1.005-18.571,1.005-9.011,0-17.585-.354-17.671-.358a.691.691,0,0,0-.189,1.362,102.848,102.848,0,0,0,21.361,2.126,99.566,99.566,0,0,0,17.044-1.423c10.1-1.771,10.807-6.779,10.832-6.991A.691.691,0,0,0,188.429,456.253Z" transform="translate(-127.055 -425.497)"/></g></svg>