<svg xmlns="http://www.w3.org/2000/svg" width="76.132" height="73.801" viewBox="0 0 76.132 73.801"><defs><style>.a{isolation:isolate;}.b{fill:#00005b;}.c{fill:#99f;}</style></defs><g class="a" transform="translate(-0.001)"><g transform="translate(0.001 0)"><rect class="b" width="76.132" height="73.801" rx="10"/></g><g transform="translate(9.37 19.05)"><path class="c" d="M50.821,85.419H39.027l-2.4,7.468a.6.6,0,0,1-.613.46H30.042q-.511,0-.357-.562L39.9,63.5c.1-.306.2-.606.306-1a10.907,10.907,0,0,0,.2-2.068.316.316,0,0,1,.357-.357h8.118q.357,0,.408.255l11.589,32.5q.153.511-.306.511H53.935a.472.472,0,0,1-.51-.357Zm-9.956-6.3h8.067q-.306-1.021-.715-2.3t-.868-2.731l-.919-2.91q-.459-1.455-.842-2.808T44.9,65.9h-.051a41.176,41.176,0,0,1-1.072,4.084q-.716,2.3-1.455,4.7T40.865,79.122Z" transform="translate(-29.649 -60.073)"/><path class="c" d="M150.329,98.9H140.272a7.172,7.172,0,0,0,.97,2.813,5.253,5.253,0,0,0,2.323,1.914,9.7,9.7,0,0,0,4.059.8,18.393,18.393,0,0,0,3.293-.362,12.137,12.137,0,0,0,2.831-.738c.17-.136.255-.051.255.255v4.85a.756.756,0,0,1-.077.383.732.732,0,0,1-.23.23,12.982,12.982,0,0,1-3.163.942,22.439,22.439,0,0,1-4.493.383,14.559,14.559,0,0,1-6.076-1.123,10.828,10.828,0,0,1-3.982-3.012,11.8,11.8,0,0,1-2.2-4.161,16.385,16.385,0,0,1-.664-4.62,16.093,16.093,0,0,1,.791-5.029,13.136,13.136,0,0,1,2.374-4.34,11.4,11.4,0,0,1,3.829-3.012,11.989,11.989,0,0,1,5.31-.994,11.522,11.522,0,0,1,4.927.97,8.683,8.683,0,0,1,3.344,2.526,11.611,11.611,0,0,1,1.889,3.6,12.826,12.826,0,0,1,.613,3.88q0,1.124-.077,2.042T156,98.42a.463.463,0,0,1-.46.408q-.306,0-1.047.077t-1.838.1C151.92,99.025,151.146,98.9,150.329,98.9Zm-10.058-4.651h6.688q1.225,0,1.812-.026a1.783,1.783,0,0,0,.74-.245v-.306a4.084,4.084,0,0,0-.2-1.174,4.171,4.171,0,0,0-4.135-2.91,4.435,4.435,0,0,0-4.212,2.4,7.385,7.385,0,0,0-.689,2.262Z" transform="translate(-100.311 -76.462)"/></g></g></svg>