<svg xmlns="http://www.w3.org/2000/svg" width="79.963" height="77.964" viewBox="0 0 79.963 77.964"><defs><style>.a{isolation:isolate;}.b{fill:#300;}.c{fill:#ff9a00;}</style></defs><g class="a"><path class="b" d="M14.16,0H65.8a14.148,14.148,0,0,1,14.16,14.16V63.8A14.148,14.148,0,0,1,65.8,77.964H14.16A14.148,14.148,0,0,1,0,63.8V14.16A14.148,14.148,0,0,1,14.16,0Z"/><g transform="translate(16.523 17.292)"><path class="c" d="M71.817,86.721H59.422l-2.532,7.83a.583.583,0,0,1-.633.466H49.993c-.366,0-.466-.2-.366-.6L60.355,63.532c.1-.333.2-.7.333-1.1a11.638,11.638,0,0,0,.2-2.166.33.33,0,0,1,.267-.366h8.629c.267,0,.4.1.433.267L82.379,94.484c.1.367,0,.533-.333.533H75.082a.5.5,0,0,1-.533-.367ZM61.355,79.957h8.463c-.2-.7-.466-1.533-.766-2.4-.3-.9-.6-1.866-.9-2.865-.333-1.033-.633-2.032-.966-3.065s-.633-2-.9-2.965c-.267-.933-.5-1.8-.733-2.6h-.067a40.908,40.908,0,0,1-1.133,4.3c-.5,1.6-1,3.265-1.533,4.931-.466,1.7-.966,3.265-1.466,4.665Z" transform="translate(-49.59 -57.235)"/><path class="c" d="M161.594,60.263a4.123,4.123,0,0,1-2.965-1.166,4.328,4.328,0,0,1-1.133-3.065,3.92,3.92,0,0,1,1.2-2.965,4.267,4.267,0,0,1,2.965-1.166,3.99,3.99,0,0,1,3.032,1.166,4.58,4.58,0,0,1-.067,6.031A3.918,3.918,0,0,1,161.594,60.263Zm-3.732,28.92V63.528c0-.333.133-.466.433-.466h6.6c.3,0,.433.167.433.466V89.183c0,.366-.133.533-.433.533h-6.53A.466.466,0,0,1,157.863,89.183Z" transform="translate(-121.543 -51.9)"/></g></g></svg>