<svg xmlns="http://www.w3.org/2000/svg" width="23.489" height="21.456" viewBox="0 0 23.489 21.456"><defs><style>.a{fill:#416dc5;}</style></defs><g transform="translate(0 0)"><path class="a" d="M.763,193.723H3.816a.763.763,0,0,0,.763-.763V179.613a.763.763,0,0,0-.763-.763H.763a.763.763,0,0,0-.763.763V192.96A.763.763,0,0,0,.763,193.723Z" transform="translate(0 -172.266)"/><path class="a" d="M.763,28.153H3.816a.763.763,0,0,0,.763-.763V24.679a.763.763,0,0,0-.763-.763H.763A.763.763,0,0,0,0,24.679V27.39A.763.763,0,0,0,.763,28.153Z" transform="translate(0 -23.916)"/><path class="a" d="M196.169,171.584a4.643,4.643,0,0,0-1.9-1.393,6.873,6.873,0,0,0-2.77-.546,6.785,6.785,0,0,0-5.214,2.349c-.284.312-.49.243-.49-.178V170.8a.763.763,0,0,0-.763-.763h-2.728a.763.763,0,0,0-.763.763v13.347a.763.763,0,0,0,.763.763h3.054a.763.763,0,0,0,.763-.763V179.5a14.934,14.934,0,0,1,.35-3.976,3.284,3.284,0,0,1,1.3-1.727,3.672,3.672,0,0,1,2.135-.652,2.724,2.724,0,0,1,1.589.456,2.543,2.543,0,0,1,.953,1.279,13.648,13.648,0,0,1,.293,3.626v5.636a.763.763,0,0,0,.763.763h3.054a.763.763,0,0,0,.763-.763v-7.559a14.314,14.314,0,0,0-.252-3.08A5.044,5.044,0,0,0,196.169,171.584Z" transform="translate(-173.83 -163.453)"/></g></svg>