<svg xmlns="http://www.w3.org/2000/svg" width="154.522" height="162.8" viewBox="0 0 154.522 162.8"><defs><style>.a{fill:#fce0b9;}.b{fill:#fad3ac;}.c{fill:#91672c;}.d{fill:#c47c66;}.e{fill:#fff;}.f{fill:#eaca65;}.g{fill:#cfb259;}.h{fill:#1a326e;}.i{fill:#172c61;}.j{fill:#13244f;}.k{fill:#606060;}.l{fill:#71caf0;}.m{fill:#454545;}.n{fill:#21408c;}</style></defs><path class="a" d="M75.908,17H29V50.636a16.553,16.553,0,0,0,5.957,12.718l12.977,7.111a13.961,13.961,0,0,0,6.722,1.722h9.4a13.969,13.969,0,0,0,6.722-1.722L83.75,63.354a16.563,16.563,0,0,0,5.955-12.718v-22.6Z" transform="translate(37.224 21.63)"/><path class="a" d="M51,21V34.8h4.139a6.9,6.9,0,1,0,0-13.8Z" transform="translate(75.929 28.668)"/><path class="b" d="M75.908,17H29v8.278H75.908l13.8,11.037V28.037Z" transform="translate(37.224 21.63)"/><ellipse class="c" cx="2.759" cy="4.139" rx="2.759" ry="4.139" transform="translate(101.405 55.186)"/><path class="d" d="M44.347,40.6A10.358,10.358,0,0,1,34,30.25h4.139a6.208,6.208,0,0,0,12.417,0h4.139A10.358,10.358,0,0,1,44.347,40.6Z" transform="translate(46.02 44.941)"/><circle class="e" cx="1.38" cy="1.38" r="1.38" transform="translate(104.164 57.946)"/><path class="f" d="M32.8,49.255C25.117,52.365,19,55.91,19,59.315l2.759,41.39H132.132l2.759-41.39C134.891,50.171,90.742,40,90.742,40H63.149Z" transform="translate(19.63 62.095)"/><path class="g" d="M32.8,57.533l30.353-9.255H90.742S129.7,57.257,134.42,65.924l.472-6.609C134.891,50.171,90.742,40,90.742,40H63.149L32.8,49.255C25.117,52.365,19,55.91,19,59.315l.477,6.675c1.518-2.9,6.838-5.833,13.319-8.457Z" transform="translate(19.63 62.095)"/><path class="a" d="M60.215,37.206a13.961,13.961,0,0,1-6.722,1.722H44.1a13.969,13.969,0,0,1-6.722-1.722L35,35.9V52.725a19.513,19.513,0,0,0,27.593,0V35.9Z" transform="translate(47.78 54.889)"/><path class="b" d="M62.593,35.9l-2.379,1.3a13.961,13.961,0,0,1-6.722,1.722H44.1a13.969,13.969,0,0,1-6.722-1.722L35,35.9V52.725c.436.436.891.839,1.355,1.225L62.593,36.958Z" transform="translate(47.78 54.889)"/><path class="h" d="M73.766,27.834v13.8l13.8,11.037H91.7a6.9,6.9,0,0,1,2.685.541A42.438,42.438,0,0,0,95.84,41.63,38.6,38.6,0,0,0,30.218,14.037H59.969A13.8,13.8,0,0,1,73.766,27.834Z" transform="translate(39.366 -3)"/><path class="h" d="M88.224,34.593V20.8A13.8,13.8,0,0,0,74.427,7H35.8a13.8,13.8,0,1,0,0,27.593H88.224Z" transform="translate(24.908 4.037)"/><path class="i" d="M35.8,22.037A13.8,13.8,0,0,1,22.279,11,13.8,13.8,0,0,0,35.8,27.556H88.224V22.037H35.8Z" transform="translate(24.908 11.075)"/><path class="j" d="M73.766,37.526,84.8,46.356V30.89A25.558,25.558,0,0,0,59.246,5.333H35.894c-.113.075-.215.163-.326.24a39.264,39.264,0,0,0-5.35,4.36H59.969a13.8,13.8,0,0,1,13.8,13.8Z" transform="translate(39.366 1.104)"/><path class="k" d="M83.742,65.149H14.759A2.76,2.76,0,0,1,12,62.39V23.759A2.76,2.76,0,0,1,14.759,21H83.742A2.76,2.76,0,0,1,86.5,23.759V62.39A2.76,2.76,0,0,1,83.742,65.149Z" transform="translate(7.315 28.668)"/><path class="k" d="M45.88,21.18A5.522,5.522,0,0,0,40.524,17H27.069a5.517,5.517,0,0,0-5.353,4.18L20,28.037H47.593Z" transform="translate(21.39 21.63)"/><path class="a" d="M71.977,100.606l-9.2-34.823a8.257,8.257,0,0,1,2.1-8.107A8.249,8.249,0,0,0,67.25,52.66l1.664-16.625A7.305,7.305,0,0,0,61.646,28h-.2l-38.63,2.759H20.786a5.519,5.519,0,0,0-5.477,6.2L16.926,49.9a5.518,5.518,0,0,0,3.008,4.252l8.846,4.423a24,24,0,0,1,8.466,7.067,34.082,34.082,0,0,1,6.291,14.511l6.868,41.66h63.464V105.261Z" transform="translate(13.06 40.983)"/><path class="k" d="M37.315,60.63A19.315,19.315,0,1,0,18,41.315,19.315,19.315,0,0,0,37.315,60.63Zm0-27.593a8.278,8.278,0,1,1-8.278,8.278A8.277,8.277,0,0,1,37.315,33.037Z" transform="translate(17.871 30.427)"/><ellipse class="l" cx="8" cy="8.5" rx="8" ry="8.5" transform="translate(47.261 63.4)"/><circle class="e" cx="2.5" cy="2.5" r="2.5" transform="translate(55.261 69.4)"/><path class="a" d="M35.353,71.863A11.038,11.038,0,0,1,24.315,60.826c3.811,0,2.759-3.088,2.759-6.9V27.714h5.519V24.224a5.52,5.52,0,0,0-4.738-5.463l-10.64-1.52A5.518,5.518,0,0,0,11.5,20.234L5.582,32.065A5.526,5.526,0,0,0,5,34.535V68.908a13.808,13.808,0,0,0,4.04,9.757l8.474,8.474a13.788,13.788,0,0,1,4.042,9.754v43.953H51.908Z" transform="translate(-5 21.954)"/><path class="m" d="M40.834,20A24.832,24.832,0,0,0,16,44.834c0,.411.041.808.061,1.214a5.464,5.464,0,0,1,3.43-1.214h2.028a19.3,19.3,0,0,1,38.412-2.743l.218-.017h.2a7.264,7.264,0,0,1,5.292,2.29A24.824,24.824,0,0,0,40.834,20Z" transform="translate(14.353 26.908)"/><path class="n" d="M24.759,23.556a13.8,13.8,0,0,1,13.8-13.8h38.63a13.684,13.684,0,0,1,8.245,2.792A13.738,13.738,0,0,0,74.427,7H35.8a13.758,13.758,0,0,0-8.245,24.8,13.684,13.684,0,0,1-2.792-8.245Z" transform="translate(24.908 4.037)"/><path class="g" d="M50,52h5.519V79.593H50Z" transform="translate(74.169 83.207)"/><g transform="translate(13.797 49.668)"><path class="b" d="M10,21h8.278v5.519H10Z" transform="translate(-10 -21)"/><path class="b" d="M10,25h8.278v5.519H10Z" transform="translate(-10 -13.963)"/><path class="b" d="M10,29h8.278v5.519H10Z" transform="translate(-10 -6.925)"/></g></svg>