<svg xmlns="http://www.w3.org/2000/svg" width="86.255" height="86.255" viewBox="0 0 86.255 86.255"><defs><style>.a{isolation:isolate;}.b{fill:#8f9ed1;}.c{fill:#f2f2f2;}</style></defs><g class="a"><path class="b" d="M86.255,43.127A43.132,43.132,0,0,1,5.747,64.651,43.141,43.141,0,1,1,86.255,43.127Z" transform="translate(0)"/><g transform="translate(1.521 20.8)"><path class="c" d="M29.437,178.239H13.554L9.028,202.728a42.791,42.791,0,0,0,4.226,10.134h1.473l1.753-9.484h8.728c10.627,0,13.484-9.541,14.169-14.227A9.722,9.722,0,0,0,29.437,178.239Zm2.3,11.7c-.389,2.656-2.352,8.066-8.375,8.066H17.474l2.633-14.253h6C31.951,183.754,32.13,187.285,31.741,189.941Z" transform="translate(-9.028 -169.012)"/><path class="c" d="M368.217,179.351a10.391,10.391,0,0,0-4.818-1.113H347.516l-6.4,34.624h7.573l1.753-9.484h8.728a12.579,12.579,0,0,0,10.058-4.4,43.457,43.457,0,0,0-1.012-19.631Zm-2.514,10.59c-.389,2.656-2.352,8.066-8.377,8.066h-5.89l2.633-14.253h6C365.913,183.753,366.092,187.284,365.7,189.941Z" transform="translate(-285.171 -169.011)"/><path class="c" d="M203.552,132.81h-9.2l1.726-9.342h-7.542l-6.4,34.623h7.542l3.68-19.91h4.82c3.2,0,5.371.686,4.913,3.657s-3.085,16.111-3.085,16.111h7.656s2.971-14.626,3.428-18.74S207.78,132.81,203.552,132.81Z" transform="translate(-152.976 -123.468)"/></g></g></svg>