<svg xmlns="http://www.w3.org/2000/svg" width="79.294" height="77.311" viewBox="0 0 79.294 77.311"><defs><style>.a{isolation:isolate;}.b{fill:#001e36;}.c{fill:#31a8ff;}</style></defs><g class="a"><path class="b" d="M14.042,0h51.21A14.03,14.03,0,0,1,79.294,14.042V63.27A14.03,14.03,0,0,1,65.252,77.311H14.042A14.03,14.03,0,0,1,0,63.27V14.042A14.03,14.03,0,0,1,14.042,0Z"/><g transform="translate(17.841 19.658)"><path class="c" d="M54,94.059v-34c0-.231.1-.363.33-.363.562,0,1.09,0,1.85-.033.793-.033,1.619-.033,2.511-.066s1.85-.033,2.874-.066,2.015-.033,3.007-.033a19.427,19.427,0,0,1,6.806,1.024,11.8,11.8,0,0,1,4.427,2.709A10.52,10.52,0,0,1,78.218,67a12.646,12.646,0,0,1,.76,4.3A11.812,11.812,0,0,1,77,78.332a11.319,11.319,0,0,1-5.319,4.031,21.413,21.413,0,0,1-7.434,1.123c-.793,0-1.322,0-1.652-.033s-.793-.033-1.421-.033V94.026a.411.411,0,0,1-.363.463H54.4C54.132,94.488,54,94.356,54,94.059Zm7.2-27.984v11.1c.463.033.892.066,1.289.066h1.751a12.341,12.341,0,0,0,3.8-.595A5.682,5.682,0,0,0,70.751,74.9a5.105,5.105,0,0,0,1.024-3.4,5.438,5.438,0,0,0-.76-2.94A4.791,4.791,0,0,0,68.7,66.669a9.7,9.7,0,0,0-3.9-.661c-.859,0-1.619,0-2.247.033a7.566,7.566,0,0,0-1.355.033Z" transform="translate(-54 -59.5)"/><path class="c" d="M157.373,91.767a11.693,11.693,0,0,0-3.172-1.123,17.416,17.416,0,0,0-3.7-.43,6.652,6.652,0,0,0-1.982.231,1.7,1.7,0,0,0-1.024.661,1.751,1.751,0,0,0-.264.892,1.47,1.47,0,0,0,.33.859,3.728,3.728,0,0,0,1.123.892c.76.4,1.553.76,2.346,1.09a23.93,23.93,0,0,1,5.088,2.412,7.688,7.688,0,0,1,2.61,2.742,7.132,7.132,0,0,1,.76,3.4,7.687,7.687,0,0,1-1.289,4.394,8.279,8.279,0,0,1-3.7,2.94,15.138,15.138,0,0,1-5.98,1.057,22.758,22.758,0,0,1-4.493-.429,13.327,13.327,0,0,1-3.37-1.057.65.65,0,0,1-.363-.628v-5.749a.359.359,0,0,1,.132-.3.252.252,0,0,1,.3.033,14.143,14.143,0,0,0,4.1,1.619,15.381,15.381,0,0,0,3.9.5,6.306,6.306,0,0,0,2.742-.463,1.535,1.535,0,0,0,.892-1.388,1.75,1.75,0,0,0-.793-1.322,14.012,14.012,0,0,0-3.238-1.553,20.215,20.215,0,0,1-4.692-2.379,8.555,8.555,0,0,1-2.511-2.808,7.089,7.089,0,0,1-.76-3.37,7.771,7.771,0,0,1,1.123-4,8.144,8.144,0,0,1,3.469-3.04A12.812,12.812,0,0,1,150.8,84.3a28.482,28.482,0,0,1,4.1.3,11.626,11.626,0,0,1,2.841.76.58.58,0,0,1,.33.3,1.659,1.659,0,0,1,.066.4v5.385a.407.407,0,0,1-.165.33A.88.88,0,0,1,157.373,91.767Z" transform="translate(-111.779 -76.106)"/></g></g></svg>