<svg xmlns="http://www.w3.org/2000/svg" width="91.5" height="92.814" viewBox="0 0 91.5 92.814"><defs><style>.a{isolation:isolate;}.b{fill:#ffda44;}.c{fill:#ffcd00;}.d{fill:#4895ff;}.e{fill:#2682ff;}</style></defs><g class="a"><path class="b" d="M91.5,45.376V55.9A10.078,10.078,0,0,1,81.422,65.977H49.98a3.039,3.039,0,0,0-3.033,3.185,3.1,3.1,0,0,0,3.119,2.885H57.5a3.036,3.036,0,0,1,3.036,3.036v7.587A10.142,10.142,0,0,1,50.4,92.813H41.576A10.142,10.142,0,0,1,31.432,82.671V55.94H10.079A10.078,10.078,0,0,1,0,45.862v-8.95A10.078,10.078,0,0,1,10.079,26.834H40.636a3.037,3.037,0,0,0,3.033-3.179,3.1,3.1,0,0,0-3.119-2.892H34.469a3.036,3.036,0,0,1-3.036-3.035V10.142A10.142,10.142,0,0,1,41.576,0H50.4A10.141,10.141,0,0,1,60.539,10.114V35.3H81.422A10.08,10.08,0,0,1,91.5,45.376Zm0,0" transform="translate(0 0)"/><path class="c" d="M299.194,45.376V55.9a10.078,10.078,0,0,1-10.079,10.078H257.674a3.039,3.039,0,0,0-3.033,3.185,3.1,3.1,0,0,0,3.119,2.885H265.2a3.036,3.036,0,0,1,3.036,3.036v7.587a10.142,10.142,0,0,1-10.142,10.142H253.68V0h4.411a10.141,10.141,0,0,1,10.142,10.114V35.3h20.883a10.08,10.08,0,0,1,10.079,10.079Zm0,0" transform="translate(-207.694 0)"/><path class="d" d="M290.851,423.46a3.035,3.035,0,1,1-3.034-3.034A3.034,3.034,0,0,1,290.851,423.46Zm0,0" transform="translate(-233.157 -344.212)"/><path class="e" d="M304.558,423.46a3.034,3.034,0,0,1-3.034,3.035v-6.069A3.034,3.034,0,0,1,304.558,423.46Zm0,0" transform="translate(-246.865 -344.212)"/><path class="d" d="M60.539,10.114V39.459a6.07,6.07,0,0,1-6.071,6.071h-20a3.038,3.038,0,0,0-3.036,3.035v7.376H10.079A10.079,10.079,0,0,1,0,45.862v-8.95A10.079,10.079,0,0,1,10.079,26.834H40.636a3.037,3.037,0,0,0,3.033-3.179,3.1,3.1,0,0,0-3.119-2.892H34.469a3.036,3.036,0,0,1-3.036-3.035V10.142A10.142,10.142,0,0,1,41.576,0H50.4A10.141,10.141,0,0,1,60.539,10.114Zm0,0" transform="translate(0 0)"/><path class="e" d="M268.232,10.114V39.459a6.07,6.07,0,0,1-6.071,6.071H253.68V0h4.411a10.141,10.141,0,0,1,10.142,10.114Zm0,0" transform="translate(-207.693 0)"/><path class="b" d="M199.013,64.979a3.036,3.036,0,1,1-3.035-3.037A3.035,3.035,0,0,1,199.013,64.979Zm0,0" transform="translate(-157.966 -50.713)"/><path class="c" d="M212.727,64.978a3.035,3.035,0,0,1-3.035,3.034V61.941A3.037,3.037,0,0,1,212.727,64.978Zm0,0" transform="translate(-171.68 -50.713)"/></g></svg>