<svg xmlns="http://www.w3.org/2000/svg" xmlns:xlink="http://www.w3.org/1999/xlink" width="377" height="44.002" viewBox="0 0 377 44.002"><defs><style>.a{fill:url(#a);}</style><linearGradient id="a" y1="0.5" x2="1" y2="0.5" gradientUnits="objectBoundingBox"><stop offset="0" stop-color="#ffba7d"/><stop offset="0.151" stop-color="#ffe94e"/><stop offset="0.291" stop-color="#aaff7a"/><stop offset="0.442" stop-color="#55d5ee"/><stop offset="0.582" stop-color="#6a7ae2"/><stop offset="0.713" stop-color="#ee61f3"/><stop offset="0.833" stop-color="#ff4da0"/><stop offset="1" stop-color="#ff4b4b"/></linearGradient></defs><path class="a" d="M-14874-396h-333a21.852,21.852,0,0,1-15.556-6.444A21.86,21.86,0,0,1-15229-418a21.854,21.854,0,0,1,6.443-15.556A21.852,21.852,0,0,1-15207-440h333a21.858,21.858,0,0,1,15.557,6.443A21.854,21.854,0,0,1-14852-418a21.86,21.86,0,0,1-6.443,15.559A21.857,21.857,0,0,1-14874-396Zm-331.873-42a20.022,20.022,0,0,0-20,20,20.023,20.023,0,0,0,20,20h331.789a20.023,20.023,0,0,0,20-20,20.022,20.022,0,0,0-20-20Z" transform="translate(15229.001 440.001)"/></svg>