<svg xmlns="http://www.w3.org/2000/svg" width="24.427" height="19.847" viewBox="0 0 24.427 19.847"><defs><style>.a{fill:#58cbf6;}</style></defs><path class="a" d="M24.427,50.35a10.441,10.441,0,0,1-2.885.791,4.98,4.98,0,0,0,2.2-2.768,10.008,10.008,0,0,1-3.176,1.212,5.007,5.007,0,0,0-8.662,3.424,5.157,5.157,0,0,0,.116,1.142A14.175,14.175,0,0,1,1.7,48.913,5.009,5.009,0,0,0,3.24,55.606a4.946,4.946,0,0,1-2.263-.617v.055a5.031,5.031,0,0,0,4.012,4.921,5,5,0,0,1-1.313.165,4.428,4.428,0,0,1-.948-.085,5.055,5.055,0,0,0,4.679,3.489A10.062,10.062,0,0,1,1.2,65.669,9.379,9.379,0,0,1,0,65.6a14.1,14.1,0,0,0,7.682,2.247A14.155,14.155,0,0,0,21.936,53.6c0-.221-.008-.435-.018-.647A9.99,9.99,0,0,0,24.427,50.35Z" transform="translate(0 -48)"/></svg>